<svg xmlns="http://www.w3.org/2000/svg" width="28" height="28" viewBox="0 0 28 28" fill="none">
<circle cx="14" cy="14" r="14" fill="#999999"/>
<path d="M17.3556 15.1668C18.0801 15.1668 18.6674 15.7541 18.6674 16.4787V17.0144C18.6674 17.3489 18.5628 17.675 18.3684 17.9471C17.4666 19.2089 15.9941 19.8341 13.999 19.8341C12.0034 19.8341 10.5317 19.2087 9.63207 17.9461C9.43842 17.6744 9.33435 17.349 9.33435 17.0153V16.4787C9.33435 15.7541 9.92168 15.1668 10.6462 15.1668H17.3556ZM13.999 8.16953C15.6098 8.16953 16.9156 9.47536 16.9156 11.0862C16.9156 12.697 15.6098 14.0029 13.999 14.0029C12.3881 14.0029 11.0823 12.697 11.0823 11.0862C11.0823 9.47536 12.3881 8.16953 13.999 8.16953Z" fill="white"/>
</svg>